<svg width="112" height="116" viewBox="0 0 112 116" fill="none" xmlns="http://www.w3.org/2000/svg">
<path d="M75.6811 24.9331L18.0243 72.8588C17.4301 72.9297 16.5472 72.7702 15.3754 72.3804C13.9065 71.8842 12.5119 71.1488 11.1916 70.1741C7.42868 67.4097 5.15112 63.4403 4.35893 58.2658C3.58324 53.304 4.29291 47.9789 6.48795 42.2905C7.21412 40.4121 8.10534 38.4717 9.1616 36.4693L11.0926 32.9872C12.6605 29.9924 13.956 27.033 14.9793 24.1091C16.6792 19.2181 17.1413 15.6031 16.3656 13.264L17.1578 13.3703C17.7519 13.4943 18.2306 13.7247 18.5937 14.0614C18.5441 13.4943 18.4039 12.8298 18.1728 12.0678C17.6942 10.5084 17.0093 9.19706 16.118 8.13381L18.7917 7.7351C21.0528 7.75282 23.3468 8.44393 25.6739 9.80842L25.5006 8.34646C25.4346 7.3541 25.5253 6.80476 25.7729 6.69843C26.1525 6.53895 26.6971 6.9288 27.4068 7.868C27.4233 7.08829 27.5801 6.20225 27.8772 5.20989C28.4548 3.26061 29.4286 1.78979 30.7984 0.797424L32.16 3.48212C33.4308 5.41368 34.9822 6.7516 36.8141 7.49587C38.415 8.16925 42.0459 8.68316 47.7068 9.03757C53.1861 9.39199 57.048 10.1185 59.2926 11.2172L61.6692 11.4299C63.6002 11.6957 65.3826 12.183 67.0165 12.8918C72.2813 15.1778 75.1695 19.1916 75.6811 24.9331Z" fill="#68AE28"/>
<path d="M6.06707 63.4757C2.33716 55.9267 3.22838 47.2524 8.74072 37.4528C5.95154 45.374 6.89227 51.7091 11.5629 56.4583C13.5929 58.5139 16.151 60.0202 19.2373 60.9771C22.2575 61.8986 25.4593 62.1998 28.8426 61.8808L17.3063 73.0715C15.6229 72.912 13.7497 72.0348 11.6867 70.44C9.32662 68.5793 7.45341 66.2579 6.06707 63.4757Z" fill="#56931F"/>
<path d="M98.3081 21.4244C99.777 22.1155 101.056 24.4635 102.145 28.4684C103.119 32.1011 103.449 34.6706 103.136 36.1769C105.083 38.6047 106.981 43.345 108.829 50.3978C110.925 58.3013 111.28 64.0516 109.894 67.649C109.448 68.8008 108.145 70.3691 105.982 72.3538C103.738 74.4449 101.518 76.0575 99.3231 77.1916L100.437 79.132C101.328 80.8332 102.129 82.6673 102.838 84.6343C105.1 90.9783 106.04 97.5527 105.661 104.357C105.545 106.519 103.878 108.291 100.66 109.674C97.5077 111.003 94.1491 111.446 90.5842 111.003C89.3794 110.826 87.7868 109.31 85.8063 106.457C83.5453 103.144 82.2002 99.7058 81.7711 96.1439C78.7508 98.0223 76.201 99.2893 74.1215 99.945L73.4778 101.115C72.9167 102.072 72.2565 102.958 71.4973 103.773C69.1042 106.395 66.2738 107.857 63.006 108.159C59.7547 108.46 57.2296 108.185 55.4306 107.335C54.8695 107.069 54.4074 106.759 54.0443 106.404L53.6977 105.952L33.9176 106.67L31.8876 108.584C30.0722 109.877 27.9762 110.56 25.5996 110.631C22.3483 110.737 19.7902 110.418 17.9252 109.674C15.5817 108.717 13.9147 106.971 12.9245 104.437C11.4887 100.787 10.7295 96.6047 10.6469 91.8909C10.5314 85.7596 11.8105 80.7446 14.4841 76.846C17.0588 73.0892 20.4173 69.2615 24.5598 65.363C25.7151 64.282 28.8591 61.5353 33.9919 57.1228C36.616 54.89 38.9514 52.7281 40.9979 50.637C43.0774 48.5106 44.3399 46.9866 44.7855 46.0651C45.2642 42.5387 45.8913 38.9591 46.667 35.3263C48.2349 28.0608 49.7533 24.18 51.2221 23.6838C52.691 23.2053 54.853 23.7104 57.7082 25.1989C59.1275 25.9609 60.3984 26.7583 61.5206 27.5912L63.204 26.9533C64.6894 26.4748 66.3151 26.0672 68.081 25.7305C73.7254 24.685 79.7163 24.623 86.0539 25.5445C87.0111 24.4458 89.1236 23.3825 92.3914 22.3547C95.5437 21.3624 97.5159 21.0523 98.3081 21.4244Z" fill="#7CBEB3"/>
<path d="M102.789 32.0037L103.284 36.1769L100.734 32.11C100.998 30.9227 101.114 29.319 101.081 27.2988L100.932 24.6407C101.691 26.395 102.31 28.8494 102.789 32.0037Z" fill="#68A198"/>
<path d="M46.0976 36.7085C47.4344 30.1164 48.7465 26.3065 50.0338 25.2787C49.7202 29.1063 49.613 32.8897 49.712 36.6288C49.778 38.8262 49.9926 42.1754 50.3556 46.6765C50.5702 49.3523 50.3144 51.7269 49.5882 53.8002C48.9445 55.6077 48.1028 56.8393 47.0631 57.495C46.0398 58.1329 45.1981 57.9912 44.538 57.0697C43.8283 56.0596 43.589 54.323 43.8201 51.8598C44.2822 46.9511 45.0413 41.9007 46.0976 36.7085Z" fill="#68A198"/>
<path d="M90.7822 104.278C92.0531 106.83 93.5714 108.424 95.3374 109.062L94.3966 111.083C91.9045 111.614 89.7012 110.914 87.7868 108.983C85.4927 106.626 83.4627 102.346 81.6968 96.1439C78.8416 98.0046 75.6728 99.3957 72.1905 100.317C68.7576 101.239 64.6316 101.797 59.8124 101.992C59.0532 102.258 58.5004 102.825 58.1538 103.693C57.8072 104.526 57.7989 105.279 58.129 105.952L56.7427 107.707L53.772 105.766C53.8545 105.164 54.3166 103.365 55.1583 100.37C55.9835 97.4995 56.5034 95.0098 56.7179 92.901C57.3451 86.5924 55.7112 80.8864 51.8162 75.7828C55.2821 79.5219 61.3556 81.8699 70.0367 82.8268C79.3119 83.8369 87.1926 82.9331 93.6787 80.1155C91.5992 81.5509 90.1138 83.7837 89.2226 86.8139C88.4304 89.5429 88.1911 92.5643 88.5047 95.8781C88.8183 99.0678 89.5774 101.868 90.7822 104.278Z" fill="#68A198"/>
<path d="M10.3994 89.0202C11.109 95.2402 14.2778 99.2362 19.9057 101.008C22.0677 101.682 24.3453 101.93 26.7383 101.753C28.9169 101.593 30.7076 101.132 32.1104 100.37L33.9176 106.909C32.6303 108.256 30.8974 109.31 28.7188 110.072C24.3618 111.596 19.9799 110.932 15.5734 108.079C13.4443 106.697 11.9177 103.188 10.9935 97.5527C10.6964 95.6566 10.4984 93.7339 10.3994 91.7846C10.3168 90.1543 10.3168 89.2328 10.3994 89.0202Z" fill="#68A198"/>
<path d="M63.4021 45.693C64.0457 45.5689 64.7307 45.6841 65.4568 46.0385C62.9647 48.0941 61.6609 51.2484 61.5454 55.5014C61.4299 59.3822 62.2551 63.0238 64.021 66.4262C60.5551 66.0186 58.1126 65.1681 56.6932 63.8744C56.2806 63.4846 56.1073 62.3948 56.1733 60.605C56.2393 58.7443 56.5447 56.795 57.0893 54.7571C58.5086 49.3346 60.6129 46.3132 63.4021 45.693Z" fill="white"/>
<path d="M71.9677 55.8203C72.7434 58.0532 73.222 60.0645 73.4035 61.8542C73.6016 63.7681 73.4035 65.044 72.8094 65.6819C72.4133 66.1072 71.3488 66.3996 69.6158 66.5591C67.8499 66.7009 65.985 66.6566 64.021 66.4262C62.255 63.0238 61.4298 59.3822 61.5454 55.5014C61.6609 51.2484 62.9647 48.0941 65.4568 46.0385C67.9159 47.2612 70.0862 50.5218 71.9677 55.8203Z" fill="#D60040"/>
<path d="M100.957 44.3639C103.02 46.1714 104.25 48.8738 104.646 52.4711C104.893 54.7217 104.794 57.8848 104.349 61.9606C103.622 62.2618 102.921 62.4656 102.244 62.572C101.551 62.696 101.031 62.696 100.685 62.572C99.711 62.2353 99.2241 59.5594 99.2241 54.5445C99.2076 49.4232 99.7852 46.0296 100.957 44.3639Z" fill="#D60040"/>
<path d="M100.957 44.3639C101.254 43.9209 101.568 43.6639 101.898 43.593C103.499 43.2209 105.05 45.3208 106.552 49.8928C108.021 54.4293 108.31 57.6722 107.418 59.6215C107.006 60.5429 105.983 61.3226 104.349 61.9606C104.794 57.8848 104.893 54.7217 104.646 52.4711C104.25 48.8738 103.02 46.1714 100.957 44.3639Z" fill="white"/>
<path d="M86.4252 41.6526C85.9466 41.8475 84.7005 41.307 82.687 40.0311C80.5745 38.7198 79.5595 37.6477 79.642 36.8148C79.7576 35.7161 81.4657 34.201 84.7665 32.2695C88.1169 30.3202 90.3449 29.6025 91.4507 30.1164C92.1604 30.4354 91.789 32.3138 90.3367 35.7516C88.8678 39.2071 87.564 41.1741 86.4252 41.6526Z" fill="#006359"/>
<path d="M75.4088 43.9386C75.3593 43.7082 75.6068 43.2741 76.1515 42.6361C76.7126 41.9805 77.216 41.5906 77.6616 41.4666L78.2062 42.2906C78.6683 43.1234 79.1304 44.293 79.5925 45.7993L79.2707 46.6233C78.9571 47.2258 78.5693 47.6422 78.1072 47.8726L76.9189 46.6499C76.0937 45.6752 75.5903 44.7715 75.4088 43.9386Z" fill="#006359"/>
<path d="M94.5452 49.7333C95.0568 52.8698 95.0981 54.6242 94.669 54.9963C94.2894 55.333 93.1341 55.2001 91.2031 54.5976C89.2556 53.9951 88.1499 53.4103 87.8858 52.8433C87.9683 51.5319 88.5955 49.8928 89.7673 47.9258C90.9721 45.9588 91.9458 44.9753 92.6885 44.9753C93.4147 44.9753 94.0336 46.5613 94.5452 49.7333Z" fill="#006359"/>
<path d="M96.0305 95.9578C95.9645 94.9478 96.5422 93.5035 97.7635 91.6251C98.9517 89.7822 99.81 88.8961 100.338 88.967C101.13 89.0556 101.675 90.8366 101.972 94.3098C102.253 97.8008 101.997 99.6881 101.205 99.9716C100.33 100.291 99.2818 100.113 98.0605 99.44C96.6577 98.6425 95.981 97.4818 96.0305 95.9578Z" fill="#006359"/>
<path d="M17.5539 81.0193L21.6386 81.2053C23.4706 81.5952 24.5268 82.0293 24.8074 82.5078C25.2695 83.3052 24.9642 84.9887 23.8914 87.5582C22.8352 90.11 21.944 91.4213 21.2178 91.4922C20.5906 91.5454 19.3198 90.872 17.4054 89.472C15.4744 88.0721 14.5172 87.0975 14.5337 86.5481C14.5502 85.8393 14.872 84.8292 15.4991 83.5179C16.1923 82.0471 16.8772 81.2142 17.5539 81.0193Z" fill="#006359"/>
<path d="M41.0969 58.2392C41.526 59.0366 40.8328 61.2517 39.0174 64.8845C37.2019 68.5172 35.8073 70.4488 34.8336 70.6792C33.9424 70.9095 32.49 70.4931 30.4765 69.4299C28.5786 68.4552 27.316 67.5603 26.6889 66.7452C26.4908 66.4794 26.6228 65.6996 27.0849 64.406L27.8276 62.5188L31.1449 59.7012C33.3895 57.8051 34.6438 56.8216 34.9079 56.7507L38.0024 57.0431C39.8178 57.3798 40.8493 57.7785 41.0969 58.2392Z" fill="#006359"/>
<path d="M66.2243 48.7232C66.7524 48.7232 67.2145 49.2814 67.6106 50.3978C68.0067 51.5851 68.1965 53.0648 68.18 54.8369C68.147 56.5203 67.9325 57.8494 67.5364 58.824C67.1733 59.7101 66.7277 60.1531 66.1995 60.1531C65.7044 60.1531 65.2753 59.6746 64.9122 58.7177C64.5161 57.7076 64.3016 56.4317 64.2686 54.89C64.2026 53.0293 64.3841 51.5142 64.8132 50.3447C65.1928 49.2637 65.6632 48.7232 66.2243 48.7232Z" fill="white"/>
<path d="M99.7935 49.308L100.289 46.9157C100.487 46.6321 100.676 46.4992 100.858 46.5169C101.155 46.5347 101.436 46.8802 101.7 47.5536C102.079 48.4574 102.286 49.7333 102.319 51.3813C102.335 52.9407 102.203 54.1546 101.923 55.0229C101.658 55.8026 101.328 56.1925 100.932 56.1925C100.685 56.1925 100.437 55.9975 100.19 55.6077C99.9255 55.1824 99.744 54.6242 99.645 53.9331C99.4469 52.7103 99.4964 51.1686 99.7935 49.308Z" fill="white"/>
<path d="M89.2474 26.7672C84.7253 25.828 80.1454 25.4647 75.5078 25.6774C70.5235 25.89 65.9437 26.7583 61.7682 28.2823C61.6196 28.3355 61.4133 28.1583 61.1493 27.7507C60.8687 27.3431 60.8027 27.1039 60.9512 27.033C65.6879 25.3141 70.8206 24.3926 76.3495 24.2686C81.2017 24.1445 85.633 24.6318 89.6435 25.7305C91.69 26.2976 92.6637 26.714 92.5647 26.9798L89.2474 26.7672Z" fill="#0D131A"/>
<path d="M102.616 34.1833C105.966 39.3932 108.409 45.436 109.943 52.3116C111.28 58.3013 111.61 62.9352 110.934 66.2136C110.191 69.8463 106.494 73.5677 99.843 77.3776C93.2414 81.1699 86.8626 83.2698 80.7066 83.6774C74.1215 84.1027 67.9242 83.5179 62.1148 81.923C56.3054 80.3281 52.5589 78.1751 50.8755 75.4638C50.3309 74.5778 50.1576 74.0373 50.3556 73.8424C50.5702 73.6474 51.0571 73.993 51.8163 74.879C54.0443 77.5017 58.0135 79.5041 63.7239 80.8864C69.1537 82.1977 74.8229 82.6584 80.7313 82.2686C86.9038 81.861 93.1341 79.7788 99.4221 76.022C105.463 72.407 108.813 68.9869 109.473 65.7617C110.166 62.4125 109.877 57.8937 108.607 52.2053C107.187 45.8436 104.918 40.1198 101.799 35.0339C100.511 32.9252 100.008 31.7556 100.289 31.5252C100.553 31.2948 101.328 32.1809 102.616 34.1833Z" fill="#0D131A"/>
<path d="M45.2559 46.3575C44.1667 48.5548 41.9634 51.1686 38.6461 54.1989C36.6656 55.9887 33.3318 58.824 28.6446 62.7048C24.3701 66.3553 21.0693 69.5716 18.7422 72.3538C15.5404 76.1815 13.4114 79.9471 12.3551 83.6508C11.0843 88.0987 11.0183 93.0959 12.1571 98.6425C13.2133 103.87 14.7152 107.095 16.6627 108.318C18.7587 109.629 21.5809 110.205 25.1293 110.046C28.7931 109.886 31.3265 108.965 32.7294 107.281C34.8914 104.676 35.7331 100.459 35.2545 94.6288C34.7594 88.6746 33.0759 83.9254 30.2042 80.3813C29.082 78.9814 28.6034 78.1308 28.7684 77.8295C28.9334 77.5283 29.6349 78.0865 30.8727 79.5041C34.487 83.6685 36.5005 88.7632 36.9131 94.7883C37.2927 100.512 36.1787 104.942 33.5711 108.079C32.0032 109.975 29.181 111.038 25.1045 111.269C21.16 111.499 18.0325 110.888 15.722 109.434C13.3784 107.964 11.662 104.49 10.5727 99.0147C9.46693 93.3795 9.5742 88.1696 10.8945 83.385C11.9013 79.7699 13.89 76.146 16.8607 72.5133C19.0228 69.8552 22.1503 66.7452 26.2433 63.1833L36.3933 54.3584C40.0572 50.9737 42.7886 47.8637 44.5875 45.0284C44.67 44.9044 44.8186 45.055 45.0331 45.4803C45.2642 45.9233 45.3384 46.2157 45.2559 46.3575Z" fill="#0D131A"/>
<path d="M51.3211 22.8864C52.3444 22.5319 54.069 22.8864 56.4951 23.9496C58.9377 25.0306 60.943 26.3508 62.5109 27.9102C63.7487 29.1506 64.2273 29.8506 63.9467 30.0101C63.6826 30.1873 62.9234 29.7531 61.6691 28.7076C60.0517 27.3963 58.1785 26.2887 56.0495 25.385C53.97 24.4812 52.5754 24.1622 51.8657 24.4281C50.7105 24.8356 49.3736 27.9811 47.8553 33.8644C46.2544 40.0843 45.2146 46.6056 44.736 53.4281C44.604 55.3951 44.3729 56.2988 44.0428 56.1393C43.6963 55.9798 43.556 55.0495 43.622 53.3483C43.8365 47.4473 44.6617 41.2716 46.0976 34.8213C47.7315 27.5203 49.4727 23.542 51.3211 22.8864Z" fill="#0D131A"/>
<path d="M85.2617 25.1723C86.6975 24.0028 88.9008 22.8863 91.8716 21.8231C95.2219 20.6181 97.5489 20.3346 98.8528 20.9725C100.14 21.5927 101.312 23.6749 102.368 27.2191C103.342 30.5151 103.886 33.8289 104.002 37.1604C104.002 37.3199 103.796 37.1515 103.383 36.6554C102.954 36.1592 102.739 35.8225 102.739 35.6453C102.64 32.9517 102.063 30.1164 101.007 27.1393C99.9998 24.304 99.0673 22.6737 98.2091 22.2484C97.4004 21.8585 95.5519 22.1066 92.6637 22.9927C89.7425 23.8787 87.663 24.8268 86.4252 25.8369C86.3097 25.9432 86.0539 25.89 85.6578 25.6774C85.2782 25.447 85.1462 25.2786 85.2617 25.1723Z" fill="#0D131A"/>
<path d="M86.1776 40.9083C86.9863 40.8906 88.1169 39.2337 89.5692 35.9377C91.0051 32.6948 91.5415 30.9759 91.1784 30.7809C90.3697 30.3379 88.3644 30.9847 85.1626 32.7214C81.9444 34.458 80.327 35.7959 80.3105 36.7351C80.294 37.3199 81.0036 38.1439 82.4395 39.2071C83.9083 40.2704 85.1544 40.8375 86.1776 40.9083ZM84.1972 32.0037C87.7125 29.9658 90.2211 29.0975 91.723 29.3987C92.2346 29.505 92.3832 30.2316 92.1686 31.5784C91.9706 32.8188 91.5249 34.2719 90.8318 35.9377C89.0989 40.0843 87.5475 42.1222 86.1776 42.0513C85.0884 41.9804 83.636 41.3071 81.8206 40.0312C79.9226 38.7021 78.9736 37.5768 78.9736 36.6554C78.9736 35.5744 80.7148 34.0238 84.1972 32.0037Z" fill="#0D131A"/>
<path d="M79.0974 45.9588C79.1469 45.817 78.9654 45.1613 78.5528 43.9918C78.1402 42.8045 77.8431 42.202 77.6615 42.1842C77.513 42.1665 77.1829 42.4058 76.6713 42.9019C76.1597 43.3981 75.9039 43.7702 75.9039 44.0183C75.9204 44.2487 76.2669 44.8512 76.9436 45.8259C77.6203 46.7651 78.0164 47.2347 78.1319 47.2347C78.2309 47.2347 78.4042 47.0574 78.6518 46.703L79.0974 45.9588ZM79.1469 43.1677C79.6585 44.4791 79.9226 45.374 79.9391 45.8524C79.9556 46.2423 79.6915 46.7739 79.1469 47.4473C78.5858 48.1384 78.1649 48.4131 77.8843 48.2713C77.5543 48.1118 76.9849 47.4562 76.1762 46.3043C75.3015 45.0816 74.8971 44.2398 74.9631 43.7791C75.0291 43.3007 75.417 42.6981 76.1267 41.9716C76.8363 41.2805 77.3727 40.9438 77.7358 40.9615C78.1154 40.997 78.5858 41.7324 79.1469 43.1677Z" fill="#0D131A"/>
<path d="M92.5152 45.7461C92.0036 45.7107 91.1619 46.7473 89.9901 48.8561C88.8513 50.9471 88.3479 52.1964 88.48 52.604C88.612 52.9762 89.5445 53.428 91.2774 53.9597C93.0268 54.4913 94.0253 54.633 94.2729 54.385C94.6525 53.9951 94.5782 52.4623 94.0501 49.7864C93.5219 47.1283 93.0103 45.7815 92.5152 45.7461ZM89.1484 47.9789C90.5842 45.3208 91.7147 44.036 92.5399 44.1246C93.5797 44.231 94.4132 46.0739 95.0403 49.6535C95.651 53.2154 95.6014 55.1824 94.8918 55.5545C94.2811 55.8912 92.936 55.6874 90.8565 54.9432C88.81 54.2166 87.6878 53.5964 87.4897 53.0825C87.1761 52.3205 87.729 50.6193 89.1484 47.9789Z" fill="#0D131A"/>
<path d="M57.6835 51.0357C59.6144 46.8359 61.6857 44.8689 63.8972 45.1347C67.0165 45.5246 69.6984 48.351 71.9429 53.6141C72.8837 55.8469 73.5026 58.0531 73.7997 60.2328C74.1132 62.5011 74.0059 64.3086 73.4778 65.6553C73.1973 66.3996 72.141 66.8958 70.309 67.1439C68.6256 67.3565 66.6699 67.3388 64.4419 67.0907C62.1973 66.8426 60.2828 66.4085 58.6985 65.7883C56.949 65.1326 56.0001 64.3795 55.8515 63.5289C55.1088 59.4885 55.7195 55.3242 57.6835 51.0357ZM69.3188 51.4079C67.5859 48.2536 65.7374 46.5612 63.7734 46.3309C62.9978 46.2423 62.1561 46.703 61.2483 47.7131C59.8785 49.2371 58.7727 51.4345 57.931 54.3052C57.0398 57.4241 56.7757 60.41 57.1388 63.263C57.2709 64.3617 59.7382 65.1946 64.5409 65.7617C69.3436 66.3465 71.9512 66.1249 72.3638 65.0971C72.7929 63.9807 72.7186 62.0315 72.141 59.2493C71.5303 56.3431 70.5896 53.7293 69.3188 51.4079Z" fill="#0D131A"/>
<path d="M105.784 49.2814C104.547 45.9853 103.301 44.3373 102.046 44.3373C100.94 44.3373 100.264 47.146 100.016 52.7635C99.7687 58.3455 100.082 61.4112 100.957 61.9606C101.535 62.315 102.624 62.1201 104.225 61.3758C105.826 60.6315 106.692 59.9316 106.824 59.2759C107.468 56.1393 107.121 52.8078 105.784 49.2814ZM98.8527 52.3116C99.1333 46.1803 100.198 43.1146 102.046 43.1146C103.647 43.1146 105.199 44.9487 106.7 48.6169C108.268 52.48 108.706 56.0861 108.012 59.4354C107.765 60.5695 106.544 61.5796 104.349 62.4656C102.22 63.3339 100.866 63.5023 100.289 62.9707C99.744 62.4922 99.3396 61.1809 99.0755 59.0367C98.8115 56.981 98.7372 54.7394 98.8527 52.3116Z" fill="#0D131A"/>
<path d="M34.6355 56.2456L38.9678 56.538C40.6512 56.857 41.6167 57.2734 41.8643 57.7873C42.3099 58.762 41.5012 61.2606 39.4382 65.2832C37.3752 69.3413 35.7991 71.3703 34.7098 71.3703C33.67 71.3703 31.9701 70.8121 29.6101 69.6957C27.1179 68.5261 25.8719 67.5692 25.8719 66.8249C25.8719 66.3996 26.0534 65.7617 26.4165 64.9111L27.6048 62.4125C27.6873 62.2707 27.9101 62.1821 28.2732 62.1466C28.6528 62.1289 28.8014 62.1909 28.7188 62.3327C28.2732 63.2188 27.9184 64.0782 27.6543 64.9111C27.4233 65.6376 27.3077 66.1604 27.3077 66.4794C27.3738 66.9578 28.4383 67.6932 30.5013 68.6856C32.5148 69.6602 33.9094 70.1564 34.685 70.1741C35.4112 69.926 36.5995 68.1185 38.2499 64.7516C39.9003 61.3847 40.61 59.329 40.3789 58.5848C40.2469 58.2835 39.5372 58 38.2499 57.7342L34.4127 57.4418C34.2477 57.4595 34.2064 57.2646 34.2889 56.857C34.3715 56.4671 34.487 56.2634 34.6355 56.2456Z" fill="#0D131A"/>
<path d="M17.7767 81.4977C17.2651 81.7635 16.6792 82.4989 16.019 83.7039C15.3588 84.8912 15.0535 85.7152 15.103 86.176C15.1691 86.6544 16.0438 87.5316 17.7272 88.8075C19.4106 90.0834 20.4999 90.6859 20.995 90.615C21.4901 90.5441 22.2575 89.3214 23.2973 86.9468C24.337 84.5722 24.7249 83.2343 24.4608 82.9331C24.1637 82.6141 23.0827 82.242 21.2178 81.8167C19.3198 81.3914 18.1728 81.285 17.7767 81.4977ZM15.0288 83.0128C15.8045 81.6306 16.5389 80.7446 17.2321 80.3547L21.5149 80.5674C23.8914 81.0458 25.2778 81.6217 25.6739 82.2951C26.037 82.9154 25.6244 84.652 24.4361 87.505C23.2478 90.3403 22.274 91.9086 21.5149 92.2099C20.9372 92.458 19.5756 91.7757 17.4301 90.1631C15.2516 88.5328 14.1045 87.2569 13.989 86.3355C13.9065 85.538 14.2531 84.4305 15.0288 83.0128Z" fill="#0D131A"/>
<path d="M96.5752 95.9047V95.9312C96.6082 97.4021 97.2766 98.4742 98.5804 99.1476C99.7522 99.7501 100.544 99.8475 100.957 99.4399C101.386 99.0146 101.535 97.4021 101.403 94.6022C101.271 91.7491 100.883 90.1631 100.239 89.8442C99.8925 89.6847 99.191 90.4821 98.1348 92.2365C97.095 93.9908 96.5752 95.2136 96.5752 95.9047ZM97.2931 91.3327C98.5639 89.1531 99.5459 88.0721 100.239 88.0898C101.361 88.1075 102.063 90.0302 102.343 93.8579C102.624 97.6147 102.393 99.7855 101.65 100.37C101.04 100.866 99.9255 100.778 98.3081 100.104C96.4596 99.3248 95.5107 98.0223 95.4611 96.1971C95.4446 95.0984 96.0553 93.4769 97.2931 91.3327Z" fill="#0D131A"/>
<path d="M108.161 64.9642C108.144 65.6554 108.054 66.2224 107.889 66.6654L107.394 67.5426C106.585 68.5704 104.654 69.864 101.601 71.4235C98.4484 73.036 95.7169 74.0904 93.4064 74.5866C89.1979 75.5081 82.7365 75.5878 74.0224 74.8258C65.3083 74.0816 59.8042 72.9652 57.5101 71.4766C57.1305 71.2108 56.7839 70.7766 56.4704 70.1741C56.1898 69.6602 55.9835 69.0932 55.8515 68.473C55.6039 67.3565 55.5874 66.7275 55.8019 66.5857C56.0165 66.4439 56.3548 66.9578 56.8169 68.1274C57.0975 68.8185 57.3946 69.3501 57.7082 69.7223L58.6984 70.5197C60.5469 71.6007 65.4898 72.5576 73.5273 73.3905C82.2249 74.2942 88.777 74.2676 93.1836 73.3107C95.1641 72.8677 97.5159 72.0082 100.239 70.7323C102.764 69.5451 104.654 68.4641 105.908 67.4895C106.37 67.1173 106.709 66.7363 106.923 66.3465C107.154 65.9389 107.303 65.4427 107.369 64.8579C107.484 63.7947 107.649 63.2985 107.864 63.3694C108.078 63.458 108.177 63.9896 108.161 64.9642Z" fill="#0D131A"/>
<path d="M70.6308 43.1411C71.2085 43.7082 71.7696 44.3993 72.3142 45.2145C72.8919 46.0651 73.3045 46.8359 73.552 47.527C73.9151 48.5194 73.9316 49.0776 73.6015 49.2016C73.255 49.308 72.8671 48.9181 72.438 48.0321C71.7283 46.5258 70.8619 45.1613 69.8386 43.9386C68.8814 42.7513 68.5018 42.0602 68.6999 41.8653C68.9144 41.6703 69.5581 42.0956 70.6308 43.1411Z" fill="#0D131A"/>
<path d="M98.5309 43.3272C98.2173 44.3019 98.0193 45.3474 97.9368 46.4638C97.8708 47.4384 97.6645 47.9169 97.3179 47.8992C96.9713 47.8992 96.8227 47.4207 96.8723 46.4638C96.9218 45.2942 97.2023 44.1424 97.714 43.0082C98.1761 41.9982 98.5144 41.5197 98.729 41.5729C98.927 41.6437 98.861 42.2285 98.5309 43.3272Z" fill="#0D131A"/>
<path d="M87.663 71.1843C87.2999 70.9893 87.0111 70.7412 86.7965 70.44C86.582 70.1564 86.5077 69.9527 86.5737 69.8286L87.3412 69.8552C87.8198 69.9615 88.1746 70.1299 88.4057 70.3602C88.7027 70.6792 88.7605 70.9539 88.579 71.1843C88.3974 71.4146 88.0921 71.4146 87.663 71.1843Z" fill="#0D131A"/>
<path d="M96.1048 69.8552C95.7582 70.3159 95.4446 70.4754 95.1641 70.3336C94.8835 70.1919 94.867 69.8995 95.1146 69.4565C95.2961 69.1375 95.5849 68.854 95.981 68.6059C96.3441 68.3578 96.5752 68.278 96.6742 68.3666C96.7402 68.4375 96.7237 68.6236 96.6247 68.9248L96.1048 69.8552Z" fill="#0D131A"/>
<path d="M66.3481 46.1714C66.4966 46.2246 66.5626 46.4815 66.5461 46.9423C66.5296 47.403 66.4554 47.5891 66.3233 47.5005C65.4816 46.9334 64.6894 47.3676 63.9467 48.8029C63.2536 50.1143 62.775 51.9306 62.5109 54.2521C62.2303 56.6444 62.2633 58.8772 62.6099 60.9505C63.0225 63.3074 63.79 64.9908 64.9122 66.0009C65.0443 66.1072 64.9617 66.2667 64.6647 66.4794C64.3676 66.6743 64.153 66.7186 64.021 66.6123C62.6677 65.5313 61.7352 63.7415 61.2236 61.2429C60.778 58.9924 60.7285 56.5823 61.075 54.0128C61.4216 51.4788 62.057 49.4586 62.9813 47.9523C63.988 46.3398 65.1103 45.7461 66.3481 46.1714Z" fill="#0D131A"/>
<path d="M100.536 44.5765C101.114 44.0981 101.782 44.3019 102.541 45.1879C103.301 46.0562 103.952 47.3498 104.497 49.0688C105.85 53.3749 105.908 57.6102 104.67 61.7745C104.621 61.934 104.431 62.0492 104.101 62.1201C103.771 62.1732 103.622 62.1201 103.655 61.9606C104.662 58.5937 104.695 54.7748 103.754 50.5041C103.375 48.7852 102.904 47.4296 102.343 46.4372C101.782 45.4271 101.271 45.055 100.808 45.3208C100.676 45.4094 100.569 45.3297 100.487 45.0816C100.404 44.8512 100.421 44.6829 100.536 44.5765Z" fill="#0D131A"/>
<path d="M98.7042 77.5903C98.6217 77.4485 98.795 77.2359 99.2241 76.9523C99.6367 76.6511 99.876 76.5713 99.942 76.7131C104.629 84.8469 106.717 94.3364 106.205 105.181C106.156 106.192 105.438 107.237 104.052 108.318C102.731 109.346 101.097 110.205 99.1498 110.896C94.4297 112.562 90.8813 112.5 88.5047 110.71C86.9368 109.523 85.3112 107.255 83.6278 103.906C82.0104 100.698 81.1852 98.2615 81.1522 96.5958C81.1522 96.4363 81.3832 96.2591 81.8453 96.0642L82.5137 95.9844C82.5468 97.6324 83.3142 99.9627 84.8161 102.975C86.417 106.183 88.0261 108.398 89.6435 109.621C91.7065 111.162 94.8175 111.207 98.9765 109.753C100.66 109.169 102.079 108.442 103.235 107.574C104.439 106.688 105.058 105.873 105.091 105.128C105.57 94.992 103.441 85.8127 98.7042 77.5903Z" fill="#0D131A"/>
<path d="M84.8656 94.4427C80.591 98.04 75.4913 100.477 69.5664 101.753C64.0705 102.922 59.1606 102.86 54.8365 101.566C54.688 101.513 54.6632 101.239 54.7622 100.742C54.8448 100.264 54.9603 100.042 55.1088 100.078C59.3504 101.354 64.0953 101.434 69.3435 100.317C74.6744 99.183 79.51 97.0299 83.8506 93.8579C85.501 92.6529 86.417 92.1745 86.5985 92.4225C86.7636 92.6529 86.1859 93.3263 84.8656 94.4427Z" fill="#0D131A"/>
<path d="M73.3045 99.8121C73.387 99.6703 73.7666 99.5463 74.4433 99.4399L75.3345 99.5197C74.0472 101.788 72.4545 103.764 70.5566 105.447C68.378 107.379 66.2408 108.486 64.1447 108.77L56.7179 108.531C54.7705 108.017 53.6234 107.237 53.2768 106.192C53.2273 106.032 53.3511 105.766 53.6482 105.394C53.9288 105.004 54.0938 104.889 54.1433 105.049C54.4734 106.041 55.4884 106.785 57.1883 107.281C59.0368 107.831 61.3061 107.928 63.9962 107.574C65.5641 107.361 67.2228 106.519 68.9722 105.049C70.7051 103.595 72.1492 101.85 73.3045 99.8121Z" fill="#0D131A"/>
<path d="M15.6972 12.7589C15.8292 12.6526 16.151 12.6526 16.6627 12.7589C17.4549 12.9184 18.148 13.2994 18.7422 13.9019C18.8742 14.0083 18.8825 14.1766 18.7669 14.407C18.6679 14.6196 18.5524 14.6728 18.4203 14.5665C18.0738 14.2475 17.7354 14.0348 17.4053 13.9285L16.935 13.9019L17.034 14.7525L17.1825 16.3474C17.232 18.7574 16.4976 21.9117 14.9792 25.8103C13.791 28.9114 12.2643 32.1189 10.3994 35.4326C4.52394 45.9056 3.22838 54.9432 6.51268 62.5454C7.75048 65.4161 9.52467 67.7641 11.8352 69.5894C13.8817 71.1842 15.8457 72.0526 17.7272 72.1943C17.8757 72.212 17.8509 72.4158 17.6529 72.8057C17.4714 73.2133 17.2981 73.4082 17.133 73.3905C14.938 73.231 12.743 72.3006 10.5479 70.5995C8.10532 68.6856 6.24861 66.2047 4.9778 63.1567C1.677 55.2533 3.1046 45.8347 9.2606 34.901C12.1653 29.7266 14.1375 25.4736 15.1773 22.1421C16.2831 18.6156 16.4646 15.7537 15.7219 13.5564C15.5734 13.1488 15.5651 12.883 15.6972 12.7589Z" fill="#0D131A"/>
<path d="M28.5208 11.8286C28.6364 11.9526 28.6364 12.1476 28.5208 12.4134C28.4053 12.6969 28.2898 12.7767 28.1742 12.6526C26.9364 11.2704 25.3273 10.1628 23.3468 9.32997C21.4819 8.56798 19.8067 8.23128 18.3213 8.31989C17.6282 8.37305 17.2568 8.47051 17.2073 8.61228C17.1578 8.73633 17.3228 9.11732 17.7024 9.75527C19.5014 12.8032 19.5509 17.3043 17.851 23.2585C16.9268 26.4482 15.4826 30.4177 13.5187 35.1668C10.614 43.3715 10.3829 50.6902 12.8255 57.1228C13.8322 59.7809 15.2268 62.0315 17.0093 63.8744C18.6597 65.5933 20.4421 66.754 22.3566 67.3566C22.4886 67.392 22.3896 67.5692 22.0595 67.8882C21.7294 68.1894 21.4901 68.3223 21.3416 68.2869C16.2748 66.692 12.8007 62.634 10.9193 56.1127C8.9553 49.3611 9.43392 42.1665 12.3551 34.5289L14.5337 29.2392C15.5734 26.652 16.3574 24.3926 16.8855 22.461C18.5029 16.6486 18.3131 12.3691 16.3161 9.62236C15.6394 8.68316 15.3259 8.08066 15.3754 7.81485C15.4249 7.51359 15.92 7.30095 16.8607 7.1769C18.6267 6.92881 20.6072 7.2212 22.8022 8.05408C25.1293 8.94011 27.0355 10.1983 28.5208 11.8286Z" fill="#0D131A"/>
<path d="M26.7879 6.69843L27.7038 7.49586C27.8029 7.61991 27.7781 7.87686 27.6296 8.26672C27.481 8.63885 27.3572 8.7629 27.2582 8.63885L26.7383 7.97432C26.4413 7.65535 26.2185 7.5313 26.0699 7.60219C25.9379 7.67307 25.8884 7.90344 25.9214 8.2933L26.1442 9.80842C26.1772 9.95019 26.0452 10.0211 25.7481 10.0211C25.451 10.0033 25.2942 9.91475 25.2777 9.75526L25.0302 8.10723C24.9642 7.20347 25.0962 6.60983 25.4263 6.32629C25.7068 6.09592 26.1607 6.21997 26.7879 6.69843Z" fill="#0D131A"/>
<path d="M64.7637 14.1943C68.3121 17.26 70.177 20.9636 70.3586 25.3052C70.3751 25.4824 70.1605 25.6153 69.7149 25.7039C69.2693 25.8103 69.0465 25.7748 69.0465 25.5976C68.8814 21.6282 67.2145 18.1992 64.0458 15.3107C60.2333 11.8375 54.9025 9.96792 48.0534 9.70211C42.1944 9.47174 38.0024 8.77177 35.4773 7.6022C33.4308 6.663 31.9537 5.07699 31.046 2.84418C30.8479 2.36572 30.6829 2.10877 30.5508 2.07333C30.4023 2.02016 30.163 2.19737 29.8329 2.60495C28.7271 3.91628 28.0752 5.52001 27.8772 7.41613C27.6791 9.36541 28.0587 10.8805 29.016 11.9615C30.9469 14.088 32.4735 16.5955 33.5958 19.484C34.289 21.2738 35.1307 24.2597 36.1209 28.4418C37.3257 33.5276 38.6543 37.311 40.1067 39.7919C41.2785 41.7944 42.9949 43.6019 45.2559 45.2145C45.3549 45.2676 45.2889 45.5246 45.0579 45.9853C44.8433 46.4284 44.67 46.6056 44.538 46.517C41.6333 44.4613 39.5455 42.2817 38.2747 39.978C37.1029 37.8515 35.9724 34.396 34.8831 29.6114C33.7114 24.4192 32.8366 21.0434 32.259 19.484C31.3678 17.0208 30.0227 14.788 28.2238 12.7855C26.9364 11.3501 26.5238 9.23251 26.986 6.43263C27.4316 3.79224 28.331 1.90498 29.6844 0.770851C30.295 0.256949 30.7241 0.0265793 30.9717 0.0797416C31.2192 0.132904 31.4586 0.505039 31.6896 1.19615C32.6798 3.96058 34.0992 5.78582 35.9476 6.67186C38.0272 7.6465 42.0706 8.25786 48.0781 8.50596C55.1418 8.77177 60.7037 10.6679 64.7637 14.1943Z" fill="#0D131A"/>
<path d="M71.9924 15.5234C75.1447 18.4296 76.5063 21.575 76.0772 24.9597C76.0607 25.1192 75.8131 25.19 75.3345 25.1723C74.8559 25.1546 74.6248 25.066 74.6413 24.9065C75.0044 22.0003 73.9317 19.2713 71.423 16.7195C68.5348 13.7956 64.5161 12.1299 59.3669 11.7223C59.2018 11.7046 58.7232 11.4919 57.931 11.0843C57.1223 10.659 56.7922 10.4464 56.9408 10.4464C63.3113 10.4464 68.3285 12.1387 71.9924 15.5234Z" fill="#0D131A"/>
<path d="M32.9026 84.0229C33.7938 80.2838 35.0399 77.484 36.6408 75.6233L54.985 81.3648C56.5859 87.9215 56.7427 94.1681 55.4554 100.105C54.6797 103.631 53.4666 106.776 51.8162 109.541C50.925 111.047 49.1096 112.039 46.3699 112.518C43.4817 113.032 40.7008 112.722 38.0271 111.588C36.0796 110.772 34.553 108.779 33.4473 105.607C32.424 102.718 31.8711 99.2539 31.7886 95.2136C31.7061 91.2619 32.0774 87.5316 32.9026 84.0229Z" fill="#7CBEB3"/>
<path d="M36.8388 91.3327C36.9379 90.2517 38.1509 88.7898 40.478 86.9468C42.805 85.1039 44.2822 84.4393 44.9093 84.9532C45.553 85.4671 45.6767 88.267 45.2807 93.3529C44.8846 98.4387 44.2822 101.017 43.4735 101.088C42.9948 101.123 41.757 99.7058 39.7601 96.835C37.7466 93.9288 36.7728 92.0947 36.8388 91.3327Z" fill="#006359"/>
<path d="M32.4323 85.1393C32.5148 92.7415 34.1074 99.0767 37.2102 104.145C40.1809 109.053 43.8943 111.756 48.3504 112.252C46.535 112.748 44.571 112.908 42.4585 112.731C38.2335 112.376 35.3865 110.498 33.9176 107.095C32.4488 103.711 31.7639 99.0324 31.8629 93.0605L32.4323 85.1393Z" fill="#68A198"/>
<path d="M35.5763 78.5472C33.4307 82.4989 32.457 88.1607 32.655 95.5325C32.8696 103.206 34.3715 108.141 37.1606 110.338C39.0586 111.827 41.6002 112.42 44.7855 112.119C47.8553 111.818 49.8853 110.914 50.8755 109.408C53.12 105.988 54.5889 101.859 55.2821 97.0211C55.9092 92.6618 55.8267 88.5151 55.0345 84.5811C54.6384 82.6141 54.5889 81.5597 54.886 81.418C55.183 81.2762 55.5791 82.1622 56.0743 84.0761C57.0975 88.0632 57.3038 92.3782 56.6932 97.0211C56.033 102.071 54.5229 106.404 52.1628 110.019C50.9415 111.88 48.4164 112.97 44.5875 113.289C40.841 113.59 38.0189 112.996 36.1209 111.508C34.7511 110.427 33.6205 108.513 32.7293 105.766C31.8711 103.144 31.3512 100.131 31.1697 96.7287C30.7241 89.0024 31.8628 82.7559 34.586 77.989C35.5432 76.3055 36.2034 75.4992 36.5665 75.5701C36.9461 75.6233 36.616 76.6156 35.5763 78.5472Z" fill="#0D131A"/>
<path d="M37.433 91.0669C37.4 91.6872 38.2499 93.4238 39.9828 96.2768C41.7488 99.183 42.8793 100.601 43.3744 100.53C43.919 100.441 44.3647 98.04 44.7112 93.3263C45.0578 88.5949 44.9753 86.0342 44.4637 85.6444C43.9851 85.29 42.6977 85.9545 40.6017 87.638C38.5222 89.3214 37.466 90.4644 37.433 91.0669ZM36.2942 90.8011C36.3437 89.5075 37.7218 87.8772 40.4284 85.9102C43.0856 83.9964 44.6782 83.3052 45.2064 83.8369C46.0811 84.7406 46.3286 87.8152 45.949 93.0605C45.5529 98.3059 44.8515 101.239 43.8448 101.859C43.1516 102.302 41.7075 100.902 39.5125 97.659C37.3174 94.4339 36.2447 92.1479 36.2942 90.8011Z" fill="#0D131A"/>
<path d="M17.6281 109.594C17.5456 109.328 17.8592 108.876 18.5689 108.238C19.295 107.6 19.8397 107.308 20.2028 107.361C20.8629 107.45 21.3168 108.221 21.5643 109.674C21.7954 111.02 21.8119 111.791 21.6139 111.986C21.3828 112.217 20.7391 112.075 19.6829 111.561C18.5441 111.012 17.8592 110.356 17.6281 109.594Z" fill="white"/>
<path d="M25.0054 111.588C23.8502 111.02 23.2725 110.453 23.2725 109.886C23.2725 109.39 23.6109 108.788 24.2875 108.079C24.9477 107.37 25.4511 107.104 25.7976 107.281C26.3423 107.565 26.7879 108.398 27.1345 109.78C27.4645 111.109 27.4811 111.88 27.184 112.093C26.8704 112.323 26.1442 112.155 25.0054 111.588Z" fill="white"/>
<path d="M28.8922 109.966C28.7766 109.045 29.0902 108.194 29.8329 107.414L30.9964 106.511C31.6071 106.794 32.0857 107.645 32.4323 109.062C32.7459 110.338 32.8201 111.083 32.6551 111.295L30.6994 111.242C29.5441 110.941 28.9417 110.515 28.8922 109.966Z" fill="white"/>
<path d="M38.6213 112.199C38.5883 111.738 38.7368 111.242 39.0669 110.71C39.463 110.072 39.9663 109.762 40.577 109.78C41.1876 109.798 41.658 110.046 41.9881 110.524C42.2521 110.967 42.3677 111.508 42.3347 112.146C42.3017 112.731 42.1119 113.386 41.7653 114.113C41.4352 114.839 41.1711 115.203 40.9731 115.203C40.7585 115.203 40.3294 114.822 39.6858 114.06C39.0091 113.262 38.6543 112.642 38.6213 112.199Z" fill="white"/>
<path d="M43.5477 112.784C43.4982 111.915 43.721 111.198 44.2161 110.631C44.6122 110.152 45.0083 109.913 45.4044 109.913C45.7015 109.913 46.0481 110.152 46.4442 110.631C46.8403 111.127 47.0878 111.623 47.1868 112.119C47.2529 112.438 47.1786 112.987 46.964 113.767C46.7495 114.6 46.4937 115.096 46.1966 115.256C45.8995 115.433 45.4044 115.238 44.7112 114.671C43.9686 114.086 43.5807 113.457 43.5477 112.784Z" fill="white"/>
<path d="M48.4247 112.624C47.9626 112.093 48.0038 111.286 48.5485 110.205C49.0931 109.124 49.6295 108.664 50.1576 108.823C50.6527 109 51.1313 109.745 51.5935 111.056C52.0226 112.314 52.1298 113.12 51.9153 113.475C51.7172 113.794 51.2056 113.865 50.3804 113.687C49.5387 113.493 48.8868 113.138 48.4247 112.624Z" fill="white"/>
<path d="M56.8417 107.786C56.7757 107.414 57.0976 106.954 57.8072 106.404C58.5004 105.873 59.0038 105.678 59.3173 105.819C59.862 106.085 60.2168 106.83 60.3819 108.052C60.5469 109.24 60.4809 109.904 60.1838 110.046C59.8867 110.188 59.3008 110.019 58.4261 109.541C57.4854 109.009 56.9573 108.424 56.8417 107.786Z" fill="white"/>
<path d="M63.5506 109.594C62.5439 109.222 61.958 108.797 61.7929 108.318C61.6444 107.91 61.9002 107.326 62.5604 106.564C63.2205 105.819 63.6992 105.518 63.9962 105.66C64.5739 105.926 64.9782 106.608 65.2093 107.707C65.4073 108.664 65.4238 109.319 65.2588 109.674L63.5506 109.594Z" fill="white"/>
<path d="M66.249 107.388C66.051 106.962 66.3315 106.351 67.0907 105.554C67.8334 104.774 68.3698 104.455 68.6999 104.597C69.0795 104.774 69.4508 105.421 69.8139 106.537C70.1605 107.636 70.2513 108.309 70.0862 108.557L68.2048 108.504C67.1155 108.221 66.4636 107.848 66.249 107.388Z" fill="white"/>
<path d="M94.3224 111.481C94.0913 111.233 94.2729 110.595 94.867 109.567C95.4612 108.522 95.9645 108.008 96.3771 108.026C96.9218 108.061 97.5324 108.699 98.2091 109.939C98.8527 111.109 99.1003 111.8 98.9518 112.013C98.7702 112.261 98.0688 112.341 96.8475 112.252C95.5767 112.163 94.735 111.906 94.3224 111.481Z" fill="white"/>
<path d="M99.7192 110.019C99.4881 109.753 99.6367 109.089 100.165 108.026C100.676 106.962 101.122 106.449 101.502 106.484C101.865 106.519 102.376 107.14 103.036 108.345C103.664 109.532 103.919 110.258 103.804 110.524C103.655 110.79 103.053 110.888 101.997 110.817C100.874 110.746 100.115 110.48 99.7192 110.019Z" fill="white"/>
<path d="M103.853 107.574C103.589 107.219 103.672 106.546 104.101 105.554C104.514 104.597 104.844 104.136 105.091 104.171C105.52 104.225 106.049 104.809 106.676 105.926C107.286 107.024 107.517 107.716 107.369 107.999C107.253 108.3 106.733 108.416 105.809 108.345C104.835 108.274 104.184 108.017 103.853 107.574Z" fill="white"/>
<path d="M18.6926 108.079L19.7819 109.541C20.5081 110.622 20.9124 111.464 20.995 112.066L19.262 111.109C18.1233 110.418 17.5869 109.922 17.6529 109.621C17.7189 109.319 17.917 108.974 18.247 108.584L18.6926 108.079Z" fill="#DBDCDC"/>
<path d="M24.2628 108.185L25.2035 109.434C25.8637 110.427 26.301 111.322 26.5156 112.119C24.4856 111.357 23.4458 110.604 23.3963 109.86C23.3633 109.399 23.4953 108.983 23.7924 108.61L24.2628 108.185Z" fill="#DBDCDC"/>
<path d="M32.0362 111.481C30.9799 111.233 30.2207 110.985 29.7586 110.737C29.2305 110.471 28.9334 110.143 28.8674 109.753C28.8014 109.417 28.8674 109.027 29.0655 108.584L29.3873 108.026C29.8329 108.256 30.3775 108.823 31.0212 109.727C31.5658 110.507 31.9042 111.091 32.0362 111.481Z" fill="#DBDCDC"/>
<path d="M39.6115 110.338L39.8591 111.96C40.0736 113.182 40.3377 114.139 40.6513 114.83L39.7106 113.953C39.0999 113.227 38.8111 112.482 38.8441 111.72C38.8771 111.189 39.0009 110.799 39.2154 110.551C39.3805 110.356 39.5125 110.285 39.6115 110.338Z" fill="#DBDCDC"/>
<path d="M44.0676 111.189L45.0083 112.837L46.2461 115.282C45.784 115.123 45.3219 114.892 44.8598 114.591C43.9355 113.989 43.5064 113.342 43.5725 112.651C43.6385 111.977 43.7375 111.534 43.8695 111.322L44.0676 111.189Z" fill="#DBDCDC"/>
<path d="M48.5484 110.232L49.712 111.428C50.5372 112.332 51.0406 113.085 51.2221 113.687L49.6872 113.156C48.664 112.73 48.1689 112.314 48.2019 111.906L48.3999 110.71L48.5484 110.232Z" fill="#DBDCDC"/>
<path d="M57.6587 106.59C57.8072 106.697 58.1208 107.095 58.5994 107.786C59.1936 108.655 59.5237 109.355 59.5897 109.886L57.8072 108.983C57.3451 108.681 57.1058 108.3 57.0893 107.84C57.0728 107.503 57.1636 107.193 57.3616 106.909L57.6587 106.59Z" fill="#DBDCDC"/>
<path d="M62.288 106.75L63.105 107.361C63.7321 107.981 64.2768 108.797 64.7389 109.807L63.4021 109.408C62.4943 109.053 61.991 108.646 61.8919 108.185C61.7929 107.724 61.8259 107.352 61.991 107.069L62.288 106.75Z" fill="#DBDCDC"/>
<path d="M66.9422 105.687L67.9572 106.484C68.6834 107.175 69.1785 107.893 69.4426 108.637L68.0315 108.424C67.0412 108.159 66.4553 107.76 66.2738 107.228C66.1748 106.98 66.216 106.67 66.3976 106.298C66.5626 105.943 66.7442 105.74 66.9422 105.687Z" fill="#DBDCDC"/>
<path d="M94.966 109.434C96.3524 110.143 97.4664 111.029 98.3081 112.093L96.4514 112.119C95.2136 112.048 94.5699 111.782 94.5204 111.322C94.4709 110.861 94.5287 110.409 94.6937 109.966L94.966 109.434Z" fill="#DBDCDC"/>
<path d="M100.14 108.292C100.421 108.38 100.891 108.646 101.551 109.089C102.442 109.674 102.995 110.232 103.21 110.764L101.477 110.684C100.305 110.542 99.7109 110.267 99.6944 109.86C99.6614 109.47 99.7274 109.089 99.8925 108.717L100.14 108.292Z" fill="#DBDCDC"/>
<path d="M104.052 105.687L105.141 106.404C105.949 107.007 106.511 107.645 106.824 108.318L105.537 108.212C104.646 108.07 104.093 107.831 103.878 107.494C103.664 107.157 103.631 106.75 103.779 106.271L104.052 105.687Z" fill="#DBDCDC"/>
<path d="M93.852 111.641C93.72 111.127 93.9841 110.303 94.6442 109.169C95.3044 108.017 95.8738 107.432 96.3524 107.414C96.831 107.397 97.4994 108.07 98.3576 109.434C99.1993 110.764 99.5624 111.667 99.4469 112.146C99.3479 112.571 98.4237 112.704 96.6742 112.544C94.9248 112.385 93.9841 112.084 93.852 111.641ZM95.4612 109.567C95.0486 110.276 94.8835 110.79 94.9661 111.109C95.1311 111.357 95.717 111.561 96.7237 111.72C97.6975 111.88 98.2256 111.871 98.3081 111.694C98.3906 111.499 98.1678 110.932 97.6397 109.993C97.0786 109.036 96.6412 108.548 96.3276 108.531C96.1461 108.513 95.8573 108.859 95.4612 109.567Z" fill="#0D131A"/>
<path d="M103.284 110.312C103.383 110.152 103.169 109.585 102.64 108.61C102.129 107.636 101.741 107.122 101.477 107.069C101.279 107.051 100.998 107.423 100.635 108.185C100.256 108.947 100.099 109.479 100.165 109.78C100.214 110.046 100.734 110.241 101.724 110.365L103.284 110.312ZM101.601 105.873C102.129 105.944 102.756 106.732 103.482 108.238C104.175 109.674 104.448 110.56 104.299 110.896C104.15 111.251 103.367 111.357 101.947 111.215C100.495 111.056 99.6201 110.755 99.3231 110.312C99.059 109.922 99.2323 109.08 99.8429 107.786C100.454 106.44 101.039 105.802 101.601 105.873Z" fill="#0D131A"/>
<path d="M104.423 105.846C104.175 106.449 104.126 106.945 104.274 107.335C104.34 107.547 104.778 107.716 105.586 107.84L106.898 107.76C106.997 107.583 106.824 107.069 106.379 106.218C105.933 105.314 105.545 104.871 105.215 104.889C104.934 104.925 104.67 105.244 104.423 105.846ZM103.878 105.182C104.39 104.171 104.827 103.666 105.19 103.666C105.801 103.666 106.445 104.402 107.121 105.873C107.781 107.29 108.012 108.176 107.814 108.531L105.611 108.61C104.258 108.433 103.523 108.185 103.408 107.866C103.16 107.175 103.317 106.28 103.878 105.182Z" fill="#0D131A"/>
<path d="M46.1966 111.003C45.9161 110.648 45.6437 110.489 45.3797 110.524C45.0001 110.542 44.6617 110.799 44.3647 111.295C44.0676 111.774 43.9438 112.234 43.9933 112.677C44.0428 113.085 44.3647 113.546 44.9588 114.06C45.5365 114.538 45.9243 114.733 46.1224 114.644C46.2544 114.591 46.3947 114.334 46.5432 113.874C46.7413 113.342 46.8073 112.846 46.7413 112.385C46.6917 111.836 46.5102 111.375 46.1966 111.003ZM43.622 110.657C44.1831 109.771 44.7938 109.355 45.4539 109.408C45.9326 109.443 46.3617 109.709 46.7413 110.205C47.1208 110.702 47.3602 111.313 47.4592 112.039C47.5747 112.748 47.5252 113.519 47.3106 114.352C47.0961 115.167 46.832 115.637 46.5184 115.761C46.1224 115.92 45.4869 115.69 44.6122 115.07C43.6715 114.379 43.1351 113.625 43.0031 112.81C42.9041 112.19 43.1104 111.472 43.622 110.657Z" fill="#0D131A"/>
<path d="M41.4682 110.95C41.2537 110.631 41.0144 110.453 40.7503 110.418C40.4367 110.383 40.1066 110.524 39.7601 110.843C39.397 111.162 39.2154 111.508 39.2154 111.88C39.2319 112.341 39.4712 112.89 39.9333 113.528C40.3459 114.13 40.6513 114.432 40.8493 114.432C41.0309 114.414 41.2289 114.157 41.4435 113.661C41.6745 113.165 41.7983 112.669 41.8148 112.172C41.8313 111.712 41.7158 111.304 41.4682 110.95ZM38.9184 110.072C39.529 109.488 40.1644 109.24 40.8246 109.328C41.3692 109.399 41.8396 109.718 42.2357 110.285C42.6153 110.852 42.7885 111.481 42.7555 112.172C42.739 112.739 42.5327 113.466 42.1366 114.352C41.7075 115.273 41.3362 115.752 41.0226 115.787C40.6595 115.841 40.0901 115.389 39.3144 114.432C38.4892 113.439 38.0601 112.598 38.0271 111.907C37.9941 111.251 38.2912 110.639 38.9184 110.072Z" fill="#0D131A"/>
<path d="M50.9993 110.418C50.6197 109.851 50.2731 109.567 49.9596 109.567C49.646 109.532 49.3324 109.78 49.0188 110.312C48.6888 110.861 48.565 111.375 48.6475 111.853C48.73 112.279 49.1921 112.651 50.0338 112.97C50.8425 113.253 51.3129 113.333 51.4449 113.209C51.5605 113.103 51.5852 112.731 51.5192 112.093C51.4532 111.401 51.2799 110.843 50.9993 110.418ZM50.1329 108.398C50.9416 108.522 51.577 109.434 52.0391 111.136C52.4682 112.731 52.5507 113.687 52.2866 114.006L49.9596 113.847C48.5732 113.439 47.8223 112.908 47.7068 112.252C47.5747 111.526 47.7645 110.693 48.2762 109.753C48.8373 108.743 49.4562 108.291 50.1329 108.398Z" fill="#0D131A"/>
<path d="M32.8779 108.85C33.2905 110.551 33.3317 111.508 33.0016 111.72C32.5725 111.986 31.7308 111.933 30.4765 111.561C29.1727 111.171 28.4465 110.702 28.298 110.152C28.0999 109.496 28.331 108.655 28.9912 107.627C29.6678 106.564 30.3445 106.059 31.0212 106.112C31.8133 106.165 32.4322 107.078 32.8779 108.85ZM29.3377 109.727C29.3873 110.099 29.8411 110.436 30.6993 110.737C31.5245 111.02 32.0279 111.074 32.2094 110.896C32.3415 110.772 32.2672 110.179 31.9866 109.115C31.6896 107.981 31.343 107.379 30.9469 107.308C30.6168 107.255 30.2537 107.494 29.8576 108.026C29.412 108.593 29.2387 109.16 29.3377 109.727Z" fill="#0D131A"/>
<path d="M23.8667 109.886C23.8667 110.294 24.3205 110.719 25.2282 111.162C26.1195 111.588 26.6311 111.703 26.7631 111.508C26.9117 111.313 26.8704 110.737 26.6393 109.78C26.3918 108.752 26.07 108.194 25.6739 108.105C25.2943 108.017 24.8982 108.203 24.4856 108.664C24.106 109.089 23.8997 109.479 23.8667 109.833V109.886ZM23.8419 107.786C24.5516 107.078 25.1787 106.776 25.7234 106.883C26.5486 107.042 27.1427 107.973 27.5058 109.674C27.8524 111.286 27.8606 112.243 27.5306 112.544C27.217 112.863 26.3423 112.686 24.9064 112.013C23.4046 111.339 22.6866 110.577 22.7526 109.727C22.8022 109.124 23.1652 108.478 23.8419 107.786Z" fill="#0D131A"/>
<path d="M66.7441 107.016C66.7936 107.37 67.2723 107.707 68.18 108.026C69.0547 108.327 69.5498 108.398 69.6653 108.238C69.7809 108.079 69.7066 107.529 69.4425 106.59C69.162 105.598 68.8566 105.084 68.5266 105.049C68.246 105.013 67.8664 105.243 67.3878 105.74C66.9092 106.254 66.6946 106.679 66.7441 107.016ZM66.7689 105.235C67.6271 104.349 68.3038 103.994 68.7989 104.171C69.426 104.419 69.9377 105.261 70.3338 106.697C70.7133 108.061 70.7794 108.867 70.5318 109.115C70.2842 109.346 69.4755 109.266 68.1057 108.876C66.7029 108.469 65.9189 108.017 65.7539 107.521C65.5558 106.9 65.8942 106.138 66.7689 105.235Z" fill="#0D131A"/>
<path d="M63.6001 109.142C64.3263 109.408 64.7471 109.479 64.8627 109.355C64.9782 109.231 64.9534 108.726 64.7884 107.84C64.6069 106.9 64.351 106.387 64.021 106.298C63.6909 106.209 63.303 106.404 62.8574 106.883C62.4118 107.379 62.2303 107.813 62.3128 108.185C62.4118 108.557 62.8409 108.876 63.6001 109.142ZM64.219 105.314C64.7637 105.456 65.2175 106.227 65.5806 107.627C65.9107 108.991 65.9437 109.886 65.6796 110.312C65.5146 110.577 64.7802 110.462 63.4763 109.966C62.123 109.452 61.3968 108.912 61.2978 108.345C61.1823 107.778 61.4959 107.095 62.2385 106.298C62.9977 105.483 63.6579 105.155 64.219 105.314Z" fill="#0D131A"/>
<path d="M58.5994 109.089C59.3256 109.514 59.7629 109.674 59.9115 109.567C60.0435 109.479 60.06 108.965 59.961 108.026C59.8455 107.033 59.6144 106.475 59.2678 106.351C58.9377 106.227 58.5416 106.351 58.0795 106.723C57.6339 107.078 57.4194 107.432 57.4359 107.786C57.4524 108.212 57.8402 108.646 58.5994 109.089ZM59.5401 105.368C60.2333 105.527 60.6459 106.404 60.7779 107.999C60.8935 109.505 60.811 110.365 60.5304 110.577C60.2168 110.79 59.4411 110.542 58.2033 109.833C56.949 109.089 56.2971 108.442 56.2476 107.893C56.1981 107.379 56.5529 106.794 57.3121 106.138C58.1208 105.465 58.8635 105.208 59.5401 105.368Z" fill="#0D131A"/>
<path d="M19.5838 110.764C20.4586 111.242 20.9619 111.393 21.094 111.215C21.2425 111.038 21.2177 110.48 21.0197 109.541C20.8051 108.566 20.5493 108.035 20.2523 107.946C19.9057 107.822 19.4848 107.964 18.9897 108.371C18.4946 108.779 18.247 109.178 18.247 109.567C18.2635 109.869 18.7091 110.267 19.5838 110.764ZM20.4751 106.75C21.1847 106.909 21.6881 107.84 21.9852 109.541C22.2657 111.171 22.2575 112.084 21.9604 112.279C21.4488 112.651 20.5246 112.456 19.1877 111.694C17.8674 110.95 17.1825 110.285 17.133 109.7C17.067 109.027 17.4548 108.327 18.2965 107.6C19.1217 106.892 19.8479 106.608 20.4751 106.75Z" fill="#0D131A"/>
</svg>
